Patient4_TMGait_0pt3_01_right_11_GRF.mot
version=1
nRows=65
nColumns=19
inDegrees=no
endheader
time	F1x	F1y	F1z	M1x	M1y	M1z	F2x	F2y	F2z	M2x	M2y	M2z	EC1x	EC1y	EC1z	EC2x	EC2y	EC2z
19.37	3.3316	708.3019	58.2517	-219.2219	-48.2456	613.7579	-6.5431	44.6702	-6.4689	17.8056	5.6655	30.5272	-0.0592	0.0182	-0.0073	-0.0462	0.0165	0.9585
19.3895	2.5777	730.2719	61.6899	-225.7811	-51.1092	630.6009	-5.7017	38.9394	-5.4968	15.2735	5.1095	27.0654	-0.0592	0.0182	-0.0073	-0.0462	0.0165	0.9585
19.409	2.1764	755.7838	65.8055	-233.3568	-54.3059	649.8061	-4.876	32.0955	-4.4297	12.4001	4.4203	22.7211	-0.0592	0.0182	-0.0073	-0.0462	0.0165	0.9585
19.4285	2.2395	782.6815	70.3628	-241.28	-57.608	669.6144	-4.0021	24.8728	-3.3427	9.478	3.6079	17.9949	-0.0592	0.0182	-0.0073	-0.0462	0.0165	0.9585
19.448	2.7893	808.2847	75.0493	-248.7305	-60.7653	687.89	-3.036	18.1005	-2.3259	6.8085	2.7237	13.4751	-0.0592	0.0182	-0.0073	-0.0462	0.0165	0.9585
19.4675	3.786	829.9341	79.5058	-254.9067	-63.5156	702.5378	-2.0782	12.4296	-1.4716	4.6153	1.8851	9.6352	-0.0592	0.0182	-0.0073	-0.0462	0.0165	0.9585
19.487	5.1755	845.5182	83.3825	-259.1875	-65.6129	711.9158	-1.2557	8.1041	-0.82474	2.9702	1.189	6.6677	-0.0592	0.0182	-0.0073	-0.0462	0.0165	0.9585
19.5065	6.9192	853.8193	86.4028	-261.2346	-66.8657	715.1027	-0.61763	5.0141	-0.37432	1.8159	0.6638	4.5051	-0.0592	0.0182	-0.0073	-0.0462	0.0165	0.9585
19.526	8.97	854.5925	88.402	-261.0066	-67.176	711.9617	-0.15786	2.8538	-0.076803	1.0231	0.2899	2.9281	-0.0592	0.0182	-0.0073	-0.0462	0.0165	0.9585
19.5455	11.2407	848.4419	89.3427	-258.7156	-66.5571	703.0427	0.15816	1.2347	0.12435	0.43447	0.017524	1.649	-0.0592	0.0182	-0.0073	-0.0462	0.0165	0.9585
19.565	13.625	836.6035	89.2999	-254.7607	-65.1146	689.402	0.37256	-0.23641	0.28167	-0.10432	-0.20821	0.36749	-0.0592	0.0182	-0.0073	-0.0462	0.0165	0.9585
19.5845	16.0342	820.7015	88.4184	-249.6528	-62.9977	672.3938	0.524	-1.8942	0.43375	-0.72149	-0.43038	-1.1744	-0.0592	0.0182	-0.0073	-0.0462	0.0165	0.9585
19.604	18.423	802.4826	86.8682	-243.9337	-60.3612	653.454	0.64179	-3.9572	0.60079	-1.4979	-0.66666	-3.1393	-0.0592	0.0182	-0.0073	-0.0462	0.0165	0.9585
19.6235	20.8049	783.6071	84.8357	-238.1106	-57.3544	633.9274	0.74057	-6.4644	0.78011	-2.4448	-0.91076	-5.5376	-0.0592	0.0182	-0.0073	-0.0462	0.0165	0.9585
19.643	23.2296	765.4861	82.5253	-232.6054	-54.1288	614.936	0.81403	-9.2005	0.94651	-3.4769	-1.1301	-8.1586	-0.0592	0.0182	-0.0073	-0.0462	0.0165	0.9585
19.6625	25.7488	749.0968	80.1527	-227.6985	-50.8422	597.2448	0.82792	-11.6065	1.043	-4.378	-1.2556	-10.4811	-0.0592	0.0182	-0.0073	-0.0462	0.0165	0.9585
19.682	28.3939	734.8201	77.9241	-223.483	-47.65	581.1433	0.71754	-12.679	0.97326	-4.764	-1.1714	-11.5759	-0.0592	0.0182	-0.0073	-0.0462	0.0165	0.9585
19.7015	31.1694	722.371	75.9835	-219.8488	-44.6678	566.4082	0.3903	-10.8851	0.59909	-4.0501	-0.70819	-10.0164	-0.0592	0.0182	-0.0073	-0.0462	0.0165	0.9585
19.721	34.0649	710.846	74.3555	-216.4976	-41.9252	552.3573	-0.27417	-4.1375	-0.25115	-1.4418	0.35144	-3.8568	-0.0592	0.0182	-0.0073	-0.0462	0.0165	0.9585
19.7405	37.0552	698.8025	72.9412	-212.9682	-39.3661	537.9287	-1.4121	10.1259	-1.7678	4.0351	2.2535	9.2921	-0.0592	0.0182	-0.0073	-0.0462	0.0165	0.9585
19.76	40.0674	684.3967	71.5545	-208.6832	-36.8883	521.8202	-3.1468	34.6781	-4.1299	13.4324	5.2302	32.0266	-0.0592	0.0182	-0.0073	-0.0462	0.0165	0.9585
19.7795	42.9275	665.5403	69.945	-203.0022	-34.3802	502.6201	-5.5488	71.9624	-7.4458	27.6713	9.4265	66.6553	-0.0592	0.0182	-0.0073	-0.0462	0.0165	0.9585
19.799	45.3374	639.9696	67.8102	-195.2413	-31.7337	478.8516	-8.6676	123.2575	-11.6781	47.2239	14.8357	114.4208	-0.0592	0.0182	-0.0073	-0.0462	0.0165	0.9585
19.8185	46.9066	605.5561	64.8633	-184.7585	-28.8803	449.1834	-12.7279	187.5595	-16.5859	71.6849	21.313	174.446	-0.0592	0.0182	-0.0073	-0.0462	0.0165	0.9585
19.838	47.2321	561.0375	60.8727	-171.182	-25.7955	412.9285	-18.3436	260.7758	-21.9555	99.4422	28.8701	242.9963	-0.0592	0.0182	-0.0073	-0.0462	0.0165	0.9585
19.8575	46.0601	506.7241	55.7364	-154.6262	-22.4959	370.4736	-25.5792	336.8724	-27.9162	128.1067	37.6212	314.4989	-0.0592	0.0182	-0.0073	-0.0462	0.0165	0.9585
19.877	43.4092	444.6838	49.6137	-135.7326	-19.0798	323.352	-33.5446	411.1275	-34.2174	155.824	46.9557	384.4525	-0.0592	0.0182	-0.0073	-0.0462	0.0165	0.9585
19.8965	39.5295	378.1328	42.9027	-115.4774	-15.7229	273.8092	-41.0965	480.5692	-40.3565	181.4641	55.9457	449.8861	-0.0592	0.0182	-0.0073	-0.0462	0.0165	0.9585
19.916	34.7805	310.6293	36.0254	-94.9329	-12.5822	224.2592	-47.3981	542.9312	-45.8879	204.192	63.8364	508.4894	-0.0592	0.0182	-0.0073	-0.0462	0.0165	0.9585
19.9355	29.5446	245.5629	29.3078	-75.1203	-9.7492	176.9654	-51.9527	596.6241	-50.6376	223.4303	70.2557	558.601	-0.0592	0.0182	-0.0073	-0.0462	0.0165	0.9585
19.955	24.1682	185.853	22.9958	-56.9194	-7.2762	133.8576	-54.5569	640.9953	-54.6448	238.9604	75.1468	599.4508	-0.0592	0.0182	-0.0073	-0.0462	0.0165	0.9585
19.9745	18.9568	133.7028	17.2934	-40.9963	-5.1989	96.3674	-55.2933	676.3042	-57.9823	250.9297	78.6021	631.1587	-0.0592	0.0182	-0.0073	-0.0462	0.0165	0.9585
19.994	14.1677	90.4353	12.3793	-27.7571	-3.5424	65.3238	-54.4295	703.5821	-60.6413	259.8088	80.7188	654.6074	-0.0592	0.0182	-0.0073	-0.0462	0.0165	0.9585
20.0135	9.968	56.422	8.375	-17.3259	-2.3112	40.9223	-52.2894	724.3232	-62.5341	266.2672	81.5495	671.1576	-0.0592	0.0182	-0.0073	-0.0462	0.0165	0.9585
20.033	6.4389	31.172	5.2858	-9.5665	-1.4616	22.784	-49.1795	740.0491	-63.5402	270.9917	81.1189	682.2496	-0.0592	0.0182	-0.0073	-0.0462	0.0165	0.9585
20.0525	3.6162	13.6272	3.0091	-4.1678	-0.89946	10.1537	-45.3636	751.9297	-63.5616	274.5254	79.4629	689.0611	-0.0592	0.0182	-0.0073	-0.0462	0.0165	0.9585
20.072	1.5056	2.4503	1.3983	-0.72728	-0.5207	2.086	-41.0522	760.6301	-62.5532	277.192	76.645	692.3566	-0.0592	0.0182	-0.0073	-0.0462	0.0165	0.9585
20.0915	0.068969	-3.799	0.32629	1.1946	-0.25953	-2.4417	-36.4104	766.4166	-60.5514	279.1242	72.7745	692.5724	-0.0592	0.0182	-0.0073	-0.0462	0.0165	0.9585
20.111	-0.80306	-6.5287	-0.30559	2.0296	-0.097126	-4.4356	-31.6028	769.3726	-57.6943	280.333	68.0385	690.0052	-0.0592	0.0182	-0.0073	-0.0462	0.0165	0.9585
20.1305	-1.2478	-6.9794	-0.60791	2.1602	-0.013119	-4.7889	-26.8531	769.5594	-54.2395	280.7677	62.7467	684.955	-0.0592	0.0182	-0.0073	-0.0462	0.0165	0.9585
20.15	-1.3963	-6.1367	-0.68675	1.8913	0.013843	-4.216	-22.4448	767.1539	-50.5365	280.3764	57.3096	677.8248	-0.0592	0.0182	-0.0073	-0.0462	0.0165	0.9585
20.1695	-1.3592	-4.7096	-0.63265	1.4441	0.0051106	-3.2284	-18.6599	762.4916	-46.9794	279.1446	52.1813	669.1174	-0.0592	0.0182	-0.0073	-0.0462	0.0165	0.9585
20.189	-1.2207	-3.1593	-0.51275	0.96301	-0.022319	-2.1566	-15.687	756.0677	-43.9256	277.1334	47.7553	659.3938	-0.0592	0.0182	-0.0073	-0.0462	0.0165	0.9585
20.2085	-1.0418	-1.7507	-0.37211	0.52873	-0.056101	-1.1892	-13.5426	748.6103	-41.6168	274.5369	44.264	649.2978	-0.0592	0.0182	-0.0073	-0.0462	0.0165	0.9585
20.228	-0.86366	-0.60424	-0.23754	0.17657	-0.089176	-0.41044	-12.121	741.178	-40.1703	271.7226	41.785	639.6657	-0.0592	0.0182	-0.0073	-0.0462	0.0165	0.9585
20.2475	-0.71229	0.24815	-0.12354	-0.085293	-0.11975	0.16352	-11.2929	735.0845	-39.6162	269.1949	40.3107	631.5127	-0.0592	0.0182	-0.0073	-0.0462	0.0165	0.9585
20.267	-0.60019	0.82708	-0.035645	-0.26527	-0.14681	0.55832	-10.9202	731.7477	-39.9103	267.534	39.7689	625.9296	-0.0592	0.0182	-0.0073	-0.0462	0.0165	0.9585
20.2865	-0.52872	1.1833	0.025744	-0.37956	-0.17032	0.81689	-10.8504	732.5434	-40.9287	267.3316	40.0167	623.9681	-0.0592	0.0182	-0.0073	-0.0462	0.0165	0.9585
20.306	-0.4918	1.3764	0.062608	-0.44451	-0.19082	0.98076	-10.9301	738.5794	-42.4725	269.0918	40.8413	626.4641	-0.0592	0.0182	-0.0073	-0.0462	0.0165	0.9585
20.3255	-0.48121	1.4596	0.078422	-0.4742	-0.20843	1.0804	-11.006	750.3965	-44.2993	273.1011	41.9867	633.7927	-0.0592	0.0182	-0.0073	-0.0462	0.0165	0.9585
20.345	-0.49027	1.4728	0.077168	-0.47925	-0.22293	1.1344	-10.9199	767.6716	-46.1747	279.304	43.1933	645.6106	-0.0592	0.0182	-0.0073	-0.0462	0.0165	0.9585
20.3645	-0.51422	1.4367	0.062011	-0.46537	-0.23407	1.1516	-10.5398	789.0471	-47.9	287.2359	44.2319	660.7179	-0.0592	0.0182	-0.0073	-0.0462	0.0165	0.9585
20.384	-0.55205	1.3485	0.036877	-0.43232	-0.24113	1.1223	-9.7721	812.3153	-49.3168	296.0912	44.9155	677.2195	-0.0592	0.0182	-0.0073	-0.0462	0.0165	0.9585
20.4035	-0.6081	1.1856	0.0080493	-0.37294	-0.24756	1.0237	-8.5583	834.8591	-50.3035	304.8888	45.0945	692.8977	-0.0592	0.0182	-0.0073	-0.0462	0.0165	0.9585
20.423	-0.68814	0.91081	-0.021555	-0.27289	-0.25841	0.81689	-6.8693	854.0952	-50.7724	312.637	44.6567	705.5885	-0.0592	0.0182	-0.0073	-0.0462	0.0165	0.9585
20.4425	-0.79492	0.47714	-0.054115	-0.11424	-0.27356	0.45015	-4.7095	867.7417	-50.6862	318.4341	43.5477	713.4164	-0.0592	0.0182	-0.0073	-0.0462	0.0165	0.9585
20.462	-0.92362	-0.16489	-0.092315	0.1211	-0.28808	-0.13193	-2.133	874.0221	-50.0718	321.5522	41.7905	714.9572	-0.0592	0.0182	-0.0073	-0.0462	0.0165	0.9585
20.4815	-1.0581	-1.0528	-0.1384	0.44622	-0.29521	-0.96666	0.76716	871.8833	-49.0053	321.5343	39.4721	709.4103	-0.0592	0.0182	-0.0073	-0.0462	0.0165	0.9585
20.501	-1.1675	-2.1865	-0.19385	0.8617	-0.28501	-2.0563	3.8943	861.2217	-47.5817	318.2915	36.71	696.7705	-0.0592	0.0182	-0.0073	-0.0462	0.0165	0.9585
20.5205	-1.2066	-3.4914	-0.25441	1.3392	-0.24539	-3.3329	7.1679	842.955	-45.9023	312.1365	33.6321	677.8595	-0.0592	0.0182	-0.0073	-0.0462	0.0165	0.9585
20.54	-1.1092	-4.7785	-0.31243	1.8058	-0.15872	-4.6175	10.5274	818.8607	-44.0655	303.7225	30.3635	654.1732	-0.0592	0.0182	-0.0073	-0.0462	0.0165	0.9585
20.5595	-0.78816	-5.693	-0.35664	2.1299	-0.0034143	-5.5775	13.9375	791.254	-42.1729	293.9185	27.0257	627.6141	-0.0592	0.0182	-0.0073	-0.0462	0.0165	0.9585
20.579	-0.13843	-5.6697	-0.36818	2.1055	0.24146	-5.6856	17.3852	762.6175	-40.3203	283.6641	23.731	600.1973	-0.0592	0.0182	-0.0073	-0.0462	0.0165	0.9585
20.5985	0.94987	-3.9063	-0.31957	1.4409	0.59078	-4.1904	20.8446	735.2465	-38.5807	273.8309	20.5774	573.7798	-0.0592	0.0182	-0.0073	-0.0462	0.0165	0.9585
20.618	2.5647	0.63349	-0.17434	-0.23878	1.046	-0.11599	24.2385	710.9518	-37.0049	265.109	17.6547	549.8393	-0.0592	0.0182	-0.0073	-0.0462	0.0165	0.9585
